<?xml version="1.0" encoding="utf-8"?>
<!DOCTYPE svg PUBLIC "-//W3C//DTD SVG 1.0//EN" "http://www.w3.org/TR/2001/REC-SVG-20010904/DTD/svg10.dtd">
<svg version="1.0" xmlns="http://www.w3.org/2000/svg" width="282px" height="104px" viewBox="0 0 282 104" preserveAspectRatio="xMidYMid meet">
 <g fill="#f5ffb6">
  <path d="M63.2 67.5 c-5.6 -1.7 -8.8 -3.9 -9.5 -6.4 -0.7 -2.9 0.7 -3.7 6.6 -4 l3.2 -0.1 -3.9 -2.3 c-2.2 -1.2 -4.4 -2.9 -4.9 -3.8 -1.3 -2.1 -0.2 -6.2 2.6 -9.4 1.9 -2.3 3.2 -2.7 9.4 -3.1 8 -0.6 17.3 1.4 20.4 4.2 1.2 1.1 1.9 2.8 1.7 4.3 -0.3 2.4 -0.7 2.6 -4.5 2.3 -4.9 -0.3 -5.7 1.3 -1.6 2.9 10.3 3.9 7.4 13.2 -4.7 15.8 -6.4 1.4 -9.4 1.3 -14.8 -0.4z"/>
  <path d="M108.5 67.6 c-17 -4.2 -19.4 -14 -4.6 -19.2 2.8 -1 5.1 -2.2 5.1 -2.7 0 -0.4 -3.1 -0.7 -7 -0.5 -7.7 0.2 -8.8 -0.2 -6.5 -2.6 3 -3 12.2 -4.9 19.4 -4.1 3.6 0.4 8.7 0.8 11.4 0.8 l4.7 0 0 14.3 c0 11.9 -0.3 14.4 -1.4 14.4 -0.8 0 -1.7 -0.4 -2 -0.9 -0.3 -0.4 -2.9 -0.2 -5.8 0.5 -6.1 1.6 -6.7 1.6 -13.3 0z"/>
  <path d="M140.4 68.2 c-0.7 -0.4 -2.2 -2.6 -3.4 -5 -1.8 -3.4 -2.1 -5.4 -1.8 -10.5 0.5 -7.3 3.2 -13.5 6.2 -14.2 1.1 -0.3 8.6 -0.4 16.6 -0.3 l14.5 0.3 -2.3 2.1 c-2.3 2.2 -9.7 4.2 -16.6 4.7 l-4 0.2 -0.1 7 c-0.1 10.1 -5 18.5 -9.1 15.7z"/>
  <path d="M184.5 67.9 c-4.4 -1.7 -9.3 -5.6 -11 -8.9 -1.9 -3.7 -1.9 -7.3 0 -13.8 1.5 -5 3.6 -7.2 6.9 -7.2 2.4 0 5.4 5.6 6.1 11.4 1 8 2.4 11.8 4.3 11.4 1.3 -0.2 2.2 -2.6 3.4 -9.2 1.9 -9.7 3.8 -13.6 6.7 -13.6 6.5 0 10.4 13.3 6.5 21.6 -3.2 6.6 -15.4 11 -22.9 8.3z"/>
  <path d="M216.1 64.1 c-2.6 -5 -2.8 -15.3 -0.5 -21 2.9 -7.3 8.2 -6.3 10.9 2 3.2 9.6 0.1 22 -5.7 22.7 -2.3 0.3 -3 -0.3 -4.7 -3.7z"/>
 </g>
</svg>